<svg class="aida-chart-svg" role="img" aria-label="Feature progress" viewBox="0 0 920 6554" xmlns="http://www.w3.org/2000/svg">
<style>
.aida-chart-svg{width:100%;height:auto;display:block;background:linear-gradient(180deg,var(--bg-elev),var(--assistant));border:1px solid var(--border);border-radius:8px;color:var(--text);font-family:Inter,ui-sans-serif,system-ui,sans-serif}
.title{fill:var(--text);font-size:18px;font-weight:700}.subtitle,.muted{fill:var(--text-dim);font-size:11px}.section{fill:var(--text);font-size:13px;font-weight:700}.label{fill:var(--text);font-size:12px;font-weight:600}.value{fill:var(--text);font-size:11px;font-weight:700}.hero{fill:var(--text);font-size:34px;font-weight:800}.grid{stroke:var(--border);stroke-width:1;opacity:.68}.track{fill:var(--border);opacity:.52}.empty{fill:var(--bg);stroke:var(--border);stroke-width:1}
</style>
<text x="28" y="34" class="title">Feature progress</text><text x="28" y="56" class="subtitle">Completion by feature</text><text x="28" y="122" class="label">1-REQ</text><text x="840" y="122" class="value">1/2 (50%)</text><rect x="28" y="133" width="824" height="12" rx="6" class="track"/><rect x="28" y="133" width="412.0" height="12" rx="6" fill="var(--accent)"/><text x="28" y="168" class="label">10-COMMENTS</text><text x="840" y="168" class="value">1/2 (50%)</text><rect x="28" y="179" width="824" height="12" rx="6" class="track"/><rect x="28" y="179" width="412.0" height="12" rx="6" fill="var(--accent)"/><text x="28" y="214" class="label">100-Teams</text><text x="840" y="214" class="value">3/3 (100%)</text><rect x="28" y="225" width="824" height="12" rx="6" class="track"/><rect x="28" y="225" width="824.0" height="12" rx="6" fill="var(--accent)"/><text x="28" y="260" class="label">101-Teams</text><text x="840" y="260" class="value">1/1 (100%)</text><rect x="28" y="271" width="824" height="12" rx="6" class="track"/><rect x="28" y="271" width="824.0" height="12" rx="6" fill="var(--accent)"/><text x="28" y="306" class="label">102-Teams</text><text x="840" y="306" class="value">1/1 (100%)</text><rect x="28" y="317" width="824" height="12" rx="6" class="track"/><rect x="28" y="317" width="824.0" height="12" rx="6" fill="var(--accent)"/><text x="28" y="352" class="label">103-Views</text><text x="840" y="352" class="value">1/1 (100%)</text><rect x="28" y="363" width="824" height="12" rx="6" class="track"/><rect x="28" y="363" width="824.0" height="12" rx="6" fill="var(--accent)"/><text x="28" y="398" class="label">106-Views</text><text x="840" y="398" class="value">1/1 (100%)</text><rect x="28" y="409" width="824" height="12" rx="6" class="track"/><rect x="28" y="409" width="824.0" height="12" rx="6" fill="var(--accent)"/><text x="28" y="444" class="label">112-Uncategorized</text><text x="840" y="444" class="value">1/4 (25%)</text><rect x="28" y="455" width="824" height="12" rx="6" class="track"/><rect x="28" y="455" width="206.0" height="12" rx="6" fill="var(--accent)"/><text x="28" y="490" class="label">113-Uncategorized</text><text x="840" y="490" class="value">0/1 (0%)</text><rect x="28" y="501" width="824" height="12" rx="6" class="track"/><rect x="28" y="501" width="0.0" height="12" rx="6" fill="var(--accent)"/><text x="28" y="536" class="label">117-Uncategorized</text><text x="840" y="536" class="value">0/1 (0%)</text><rect x="28" y="547" width="824" height="12" rx="6" class="track"/><rect x="28" y="547" width="0.0" height="12" rx="6" fill="var(--accent)"/><text x="28" y="582" class="label">118-Uncategorized</text><text x="840" y="582" class="value">1/1 (100%)</text><rect x="28" y="593" width="824" height="12" rx="6" class="track"/><rect x="28" y="593" width="824.0" height="12" rx="6" fill="var(--accent)"/><text x="28" y="628" class="label">119-Uncategorized</text><text x="840" y="628" class="value">1/1 (100%)</text><rect x="28" y="639" width="824" height="12" rx="6" class="track"/><rect x="28" y="639" width="824.0" height="12" rx="6" fill="var(--accent)"/></svg>