<svg class="aida-chart-svg" role="img" aria-label="SPRINT-3 · Sprint #3 thru 2025-12-07 Friday" viewBox="0 0 920 888" xmlns="http://www.w3.org/2000/svg">
<style>
.aida-chart-svg{width:100%;height:auto;display:block;background:linear-gradient(180deg,var(--bg-elev),var(--assistant));border:1px solid var(--border);border-radius:8px;color:var(--text);font-family:Inter,ui-sans-serif,system-ui,sans-serif}
.title{fill:var(--text);font-size:18px;font-weight:700}.subtitle,.muted{fill:var(--text-dim);font-size:11px}.section{fill:var(--text);font-size:13px;font-weight:700}.label{fill:var(--text);font-size:12px;font-weight:600}.value{fill:var(--text);font-size:11px;font-weight:700}.hero{fill:var(--text);font-size:34px;font-weight:800}.grid{stroke:var(--border);stroke-width:1;opacity:.68}.track{fill:var(--border);opacity:.52}.empty{fill:var(--bg);stroke:var(--border);stroke-width:1}
</style>
<text x="28" y="34" class="title">SPRINT-3 · Sprint #3 thru 2025-12-07 Friday</text><text x="28" y="56" class="subtitle">Sprint metrics</text><text x="28" y="86" class="muted">6 assigned items · 1 completed · fallback time-series uses current status modified dates when status history is unavailable</text>
<g><text x="24" y="132" class="section">Burndown</text><line x1="66" y1="290.0" x2="874" y2="290.0" class="grid"/><text x="59" y="293.0" text-anchor="end" class="muted">0</text><line x1="66" y1="253.0" x2="874" y2="253.0" class="grid"/><text x="59" y="256.0" text-anchor="end" class="muted">2</text><line x1="66" y1="216.0" x2="874" y2="216.0" class="grid"/><text x="59" y="219.0" text-anchor="end" class="muted">3</text><line x1="66" y1="179.0" x2="874" y2="179.0" class="grid"/><text x="59" y="182.0" text-anchor="end" class="muted">5</text><line x1="66" y1="142.0" x2="874" y2="142.0" class="grid"/><text x="59" y="145.0" text-anchor="end" class="muted">6</text><polyline points="66.0,142.0 181.4,164.2 296.9,183.9 412.3,206.1 527.7,225.9 643.1,248.1 758.6,267.8 874.0,290.0" fill="none" stroke="#6b7280" stroke-width="1.8" stroke-dasharray="6 4" opacity=".72"/><polyline points="66.0,142.0 181.4,142.0 296.9,142.0 412.3,142.0 527.7,142.0 643.1,142.0 758.6,142.0 874.0,142.0" fill="none" stroke="#3b82f6" stroke-width="2.6"/><text x="66" y="320" class="muted">Remaining · Ideal</text></g><g><text x="24" y="390" class="section">Burn-up</text><line x1="66" y1="548.0" x2="874" y2="548.0" class="grid"/><text x="59" y="551.0" text-anchor="end" class="muted">0</text><line x1="66" y1="511.0" x2="874" y2="511.0" class="grid"/><text x="59" y="514.0" text-anchor="end" class="muted">2</text><line x1="66" y1="474.0" x2="874" y2="474.0" class="grid"/><text x="59" y="477.0" text-anchor="end" class="muted">3</text><line x1="66" y1="437.0" x2="874" y2="437.0" class="grid"/><text x="59" y="440.0" text-anchor="end" class="muted">5</text><line x1="66" y1="400.0" x2="874" y2="400.0" class="grid"/><text x="59" y="403.0" text-anchor="end" class="muted">6</text><polyline points="66.0,400.0 181.4,400.0 296.9,400.0 412.3,400.0 527.7,400.0 643.1,400.0 758.6,400.0 874.0,400.0" fill="none" stroke="#f59e0b" stroke-width="1.8" stroke-dasharray="6 4" opacity=".72"/><polyline points="66.0,548.0 181.4,548.0 296.9,548.0 412.3,548.0 527.7,548.0 643.1,548.0 758.6,548.0 874.0,548.0" fill="none" stroke="#10b981" stroke-width="2.6"/><text x="66" y="578" class="muted">Completed · Scope</text></g><g><text x="24" y="648" class="section">Velocity</text><line x1="66" y1="806.0" x2="874" y2="806.0" class="grid"/><text x="59" y="809.0" text-anchor="end" class="muted">0</text><line x1="66" y1="769.0" x2="874" y2="769.0" class="grid"/><text x="59" y="772.0" text-anchor="end" class="muted">1</text><line x1="66" y1="732.0" x2="874" y2="732.0" class="grid"/><text x="59" y="735.0" text-anchor="end" class="muted">2</text><line x1="66" y1="695.0" x2="874" y2="695.0" class="grid"/><text x="59" y="698.0" text-anchor="end" class="muted">2</text><line x1="66" y1="658.0" x2="874" y2="658.0" class="grid"/><text x="59" y="661.0" text-anchor="end" class="muted">3</text><rect x="375.0" y="658.0" width="58.0" height="148.0" rx="4" fill="#8b5cf6" opacity=".82"/><text x="404.0" y="653.0" text-anchor="middle" class="value">3</text><text x="404.0" y="836.0" text-anchor="middle" class="muted">S2</text><rect x="441.0" y="707.3" width="58.0" height="98.7" rx="4" fill="#8b5cf6" opacity=".82"/><text x="470.0" y="702.3" text-anchor="middle" class="value">2</text><text x="470.0" y="836.0" text-anchor="middle" class="muted">S1</text><rect x="507.0" y="756.7" width="58.0" height="49.3" rx="4" fill="#8b5cf6" opacity=".82"/><text x="536.0" y="751.7" text-anchor="middle" class="value">1</text><text x="536.0" y="836.0" text-anchor="middle" class="muted">S3</text></g></svg>