<svg xmlns="http://www.w3.org/2000/svg" viewBox="0 0 400 220" role="img" style="width:100%;max-width:480px;color:var(--text-dim,#8b93a3);font-family:ui-monospace,SFMono-Regular,Menlo,monospace;font-size:9px;"><text x="30.0" y="14" fill="currentColor" font-size="11" font-weight="600" letter-spacing="0.04em">Burn-down</text>
<line x1="36.0" y1="188.0" x2="380.0" y2="188.0" stroke="currentColor" stroke-opacity="0.08"/>
<text x="32.0" y="191.0" text-anchor="end" fill="currentColor" font-size="9">0</text>
<line x1="36.0" y1="147.0" x2="380.0" y2="147.0" stroke="currentColor" stroke-opacity="0.08"/>
<text x="32.0" y="150.0" text-anchor="end" fill="currentColor" font-size="9">2</text>
<line x1="36.0" y1="106.0" x2="380.0" y2="106.0" stroke="currentColor" stroke-opacity="0.08"/>
<text x="32.0" y="109.0" text-anchor="end" fill="currentColor" font-size="9">3</text>
<line x1="36.0" y1="65.0" x2="380.0" y2="65.0" stroke="currentColor" stroke-opacity="0.08"/>
<text x="32.0" y="68.0" text-anchor="end" fill="currentColor" font-size="9">5</text>
<line x1="36.0" y1="24.0" x2="380.0" y2="24.0" stroke="currentColor" stroke-opacity="0.08"/>
<text x="32.0" y="27.0" text-anchor="end" fill="currentColor" font-size="9">6</text>
<polyline points="36.0,24.0 85.1,48.6 134.3,70.5 183.4,95.1 232.6,116.9 281.7,141.5 330.9,163.4 380.0,188.0" fill="none" stroke="#6b7280" stroke-width="1.5" stroke-dasharray="6 3"/>
<polyline points="36.0,24.0 85.1,24.0 134.3,24.0 183.4,24.0 232.6,24.0 281.7,24.0 330.9,24.0 380.0,24.0" fill="none" stroke="#3b82f6" stroke-width="2"/>
<circle cx="36.0" cy="24.0" r="2.5" fill="#3b82f6"/>
<circle cx="85.1" cy="24.0" r="2.5" fill="#3b82f6"/>
<circle cx="134.3" cy="24.0" r="2.5" fill="#3b82f6"/>
<circle cx="183.4" cy="24.0" r="2.5" fill="#3b82f6"/>
<circle cx="232.6" cy="24.0" r="2.5" fill="#3b82f6"/>
<circle cx="281.7" cy="24.0" r="2.5" fill="#3b82f6"/>
<circle cx="330.9" cy="24.0" r="2.5" fill="#3b82f6"/>
<circle cx="380.0" cy="24.0" r="2.5" fill="#3b82f6"/>
<text x="36.0" y="214.0" text-anchor="middle" fill="currentColor" font-size="9">03-06</text>
<text x="232.6" y="214.0" text-anchor="middle" fill="currentColor" font-size="9">03-10</text>
<text x="380.0" y="214.0" text-anchor="middle" fill="currentColor" font-size="9">03-13</text>
<line x1="148.0" y1="204.0" x2="162.0" y2="204.0" stroke="#3b82f6" stroke-width="2"/>
<text x="166.0" y="207.0" fill="currentColor" font-size="9">Actual</text>
<line x1="220.0" y1="204.0" x2="234.0" y2="204.0" stroke="#6b7280" stroke-width="2" stroke-dasharray="3 2"/>
<text x="238.0" y="207.0" fill="currentColor" font-size="9">Ideal</text>
</svg>