<svg xmlns="http://www.w3.org/2000/svg" viewBox="0 0 400 220" role="img" style="width:100%;max-width:480px;color:var(--text-dim,#8b93a3);font-family:ui-monospace,SFMono-Regular,Menlo,monospace;font-size:9px;"><text x="30.0" y="14" fill="currentColor" font-size="11" font-weight="600" letter-spacing="0.04em">Status distribution</text>
<path d="M 92.00 58.00 A 60 60 0 0 1 122.24 66.18 L 110.14 86.91 A 36 36 0 0 0 92.00 82.00 Z" fill="#6b7280" stroke="var(--bg,#0f1115)" stroke-width="1"/>
<path d="M 122.24 66.18 A 60 60 0 0 1 152.00 117.81 L 128.00 117.88 A 36 36 0 0 0 110.14 86.91 Z" fill="#3b82f6" stroke="var(--bg,#0f1115)" stroke-width="1"/>
<path d="M 152.00 117.81 A 60 60 0 0 1 151.99 118.84 L 128.00 118.50 A 36 36 0 0 0 128.00 117.88 Z" fill="#8b5cf6" stroke="var(--bg,#0f1115)" stroke-width="1"/>
<path d="M 151.99 118.84 A 60 60 0 0 1 151.94 120.64 L 127.97 119.58 A 36 36 0 0 0 128.00 118.50 Z" fill="#f59e0b" stroke="var(--bg,#0f1115)" stroke-width="1"/>
<path d="M 151.94 120.64 A 60 60 0 0 1 151.93 120.90 L 127.96 119.74 A 36 36 0 0 0 127.97 119.58 Z" fill="#d946ef" stroke="var(--bg,#0f1115)" stroke-width="1"/>
<path d="M 151.93 120.90 A 60 60 0 1 1 39.51 88.93 L 60.51 100.56 A 36 36 0 1 0 127.96 119.74 Z" fill="#10b981" stroke="var(--bg,#0f1115)" stroke-width="1"/>
<path d="M 39.51 88.93 A 60 60 0 0 1 92.00 58.00 L 92.00 82.00 A 36 36 0 0 0 60.51 100.56 Z" fill="#ef4444" stroke="var(--bg,#0f1115)" stroke-width="1"/>
<text x="92.0" y="118.0" text-anchor="middle" dy="0" fill="var(--text,#e6e8ee)" font-size="22" font-weight="700">1463</text>
<text x="92.0" y="132.0" text-anchor="middle" fill="currentColor" font-size="9" letter-spacing="0.08em">TOTAL</text>
<rect x="184.0" y="28.0" width="9" height="9" rx="2" fill="#6b7280"/>
<text x="198.0" y="36.0" fill="var(--text,#e6e8ee)" font-size="10" font-family="ui-sans-serif,system-ui,sans-serif">Draft</text>
<text x="380.0" y="36.0" text-anchor="end" fill="currentColor" font-size="10">123 (8%)</text>
<rect x="184.0" y="46.0" width="9" height="9" rx="2" fill="#3b82f6"/>
<text x="198.0" y="54.0" fill="var(--text,#e6e8ee)" font-size="10" font-family="ui-sans-serif,system-ui,sans-serif">Approved</text>
<text x="380.0" y="54.0" text-anchor="end" fill="currentColor" font-size="10">242 (17%)</text>
<rect x="184.0" y="64.0" width="9" height="9" rx="2" fill="#8b5cf6"/>
<text x="198.0" y="72.0" fill="var(--text,#e6e8ee)" font-size="10" font-family="ui-sans-serif,system-ui,sans-serif">Planned</text>
<text x="380.0" y="72.0" text-anchor="end" fill="currentColor" font-size="10">4 (0%)</text>
<rect x="184.0" y="82.0" width="9" height="9" rx="2" fill="#f59e0b"/>
<text x="198.0" y="90.0" fill="var(--text,#e6e8ee)" font-size="10" font-family="ui-sans-serif,system-ui,sans-serif">InProgress</text>
<text x="380.0" y="90.0" text-anchor="end" fill="currentColor" font-size="10">7 (0%)</text>
<rect x="184.0" y="100.0" width="9" height="9" rx="2" fill="#d946ef"/>
<text x="198.0" y="108.0" fill="var(--text,#e6e8ee)" font-size="10" font-family="ui-sans-serif,system-ui,sans-serif">NeedsAttention</text>
<text x="380.0" y="108.0" text-anchor="end" fill="currentColor" font-size="10">1 (0%)</text>
<rect x="184.0" y="118.0" width="9" height="9" rx="2" fill="#10b981"/>
<text x="198.0" y="126.0" fill="var(--text,#e6e8ee)" font-size="10" font-family="ui-sans-serif,system-ui,sans-serif">Completed</text>
<text x="380.0" y="126.0" text-anchor="end" fill="currentColor" font-size="10">838 (57%)</text>
<rect x="184.0" y="136.0" width="9" height="9" rx="2" fill="#ef4444"/>
<text x="198.0" y="144.0" fill="var(--text,#e6e8ee)" font-size="10" font-family="ui-sans-serif,system-ui,sans-serif">Rejected</text>
<text x="380.0" y="144.0" text-anchor="end" fill="currentColor" font-size="10">248 (17%)</text>
</svg>