<svg xmlns="http://www.w3.org/2000/svg" viewBox="0 0 400 220" role="img" style="width:100%;max-width:480px;color:var(--text-dim,#8b93a3);font-family:ui-monospace,SFMono-Regular,Menlo,monospace;font-size:9px;"><text x="30.0" y="14" fill="currentColor" font-size="11" font-weight="600" letter-spacing="0.04em">Status distribution</text>
<path d="M 92.00 58.00 A 60 60 0 0 1 119.49 171.33 L 108.50 150.00 A 36 36 0 0 0 92.00 82.00 Z" fill="#6b7280" stroke="var(--bg,#0f1115)" stroke-width="1"/>
<path d="M 119.49 171.33 A 60 60 0 0 1 54.91 165.16 L 69.75 146.30 A 36 36 0 0 0 108.50 150.00 Z" fill="#3b82f6" stroke="var(--bg,#0f1115)" stroke-width="1"/>
<path d="M 54.91 165.16 A 60 60 0 0 1 37.42 93.08 L 59.25 103.05 A 36 36 0 0 0 69.75 146.30 Z" fill="#f59e0b" stroke="var(--bg,#0f1115)" stroke-width="1"/>
<path d="M 37.42 93.08 A 60 60 0 0 1 92.00 58.00 L 92.00 82.00 A 36 36 0 0 0 59.25 103.05 Z" fill="#10b981" stroke="var(--bg,#0f1115)" stroke-width="1"/>
<text x="92.0" y="118.0" text-anchor="middle" dy="0" fill="var(--text,#e6e8ee)" font-size="22" font-weight="700">33</text>
<text x="92.0" y="132.0" text-anchor="middle" fill="currentColor" font-size="9" letter-spacing="0.08em">TOTAL</text>
<rect x="184.0" y="28.0" width="9" height="9" rx="2" fill="#6b7280"/>
<text x="198.0" y="36.0" fill="var(--text,#e6e8ee)" font-size="10" font-family="ui-sans-serif,system-ui,sans-serif">Draft</text>
<text x="380.0" y="36.0" text-anchor="end" fill="currentColor" font-size="10">14 (42%)</text>
<rect x="184.0" y="46.0" width="9" height="9" rx="2" fill="#3b82f6"/>
<text x="198.0" y="54.0" fill="var(--text,#e6e8ee)" font-size="10" font-family="ui-sans-serif,system-ui,sans-serif">Approved</text>
<text x="380.0" y="54.0" text-anchor="end" fill="currentColor" font-size="10">6 (18%)</text>
<rect x="184.0" y="64.0" width="9" height="9" rx="2" fill="#f59e0b"/>
<text x="198.0" y="72.0" fill="var(--text,#e6e8ee)" font-size="10" font-family="ui-sans-serif,system-ui,sans-serif">InProgress</text>
<text x="380.0" y="72.0" text-anchor="end" fill="currentColor" font-size="10">7 (21%)</text>
<rect x="184.0" y="82.0" width="9" height="9" rx="2" fill="#10b981"/>
<text x="198.0" y="90.0" fill="var(--text,#e6e8ee)" font-size="10" font-family="ui-sans-serif,system-ui,sans-serif">Completed</text>
<text x="380.0" y="90.0" text-anchor="end" fill="currentColor" font-size="10">6 (18%)</text>
</svg>